<svg width="49" height="42" viewBox="0 0 49 42" fill="none" xmlns="http://www.w3.org/2000/svg">
<rect x="0.16626" width="48.1224" height="42" rx="5" fill="#2930FF"/>
<path d="M36.6461 28.8278V29.8601H35.0512L34.3202 29.4348C33.8383 29.1545 33.2995 28.9728 32.7365 28.8872C33.7283 27.8724 34.2806 26.5873 34.2806 25.2149C34.2806 22.0846 31.3622 19.5375 27.7756 19.5375C24.1889 19.5375 21.2705 22.0846 21.2705 25.2149C21.2705 26.7215 21.9406 28.1207 23.1233 29.1736C22.7182 29.458 22.4533 29.8884 22.4533 30.3762C22.4533 30.594 22.4941 30.8041 22.5538 31.01L20.5089 28.6296C20.06 28.1073 19.3451 27.7955 18.597 27.7955H18.338C17.0204 27.7955 15.9482 28.7313 15.9482 29.8812C15.9482 30.3117 16.0979 30.7256 16.3799 31.0771L18.7821 34.0722C19.7773 35.313 21.4071 36.0536 23.1422 36.0536H36.6461V37.0859H42.5597V28.8278H36.6461ZM27.7756 20.5697C30.7099 20.5697 33.0979 22.6533 33.0979 25.2149C33.0979 26.6358 32.3717 27.9411 31.1091 28.8278H28.3669V27.7955H30.141V26.2472C30.141 25.3935 29.3451 24.6988 28.3669 24.6988H27.1842C26.8584 24.6988 26.5928 24.4675 26.5928 24.1826V23.6665H28.3669C28.6928 23.6665 28.9583 23.8977 28.9583 24.1826H30.141C30.141 23.329 29.3451 22.6342 28.3669 22.6342V21.602H27.1842V22.6342H25.4101V24.1826C25.4101 25.0363 26.2061 25.731 27.1842 25.731H28.3669C28.6928 25.731 28.9583 25.9622 28.9583 26.2472V26.7633H27.1842C26.8584 26.7633 26.5928 26.5321 26.5928 26.2472H25.4101C25.4101 27.1008 26.2061 27.7955 27.1842 27.7955V28.8278H24.442C23.1795 27.9411 22.4533 26.6358 22.4533 25.2149C22.4533 22.6533 24.8412 20.5697 27.7756 20.5697ZM23.1422 35.0213C21.7927 35.0213 20.5248 34.4453 19.7513 33.4807L17.3492 30.4851C17.2061 30.3075 17.131 30.0985 17.131 29.8812C17.131 29.3006 17.6727 28.8278 18.3385 28.8278H18.5976C18.9754 28.8278 19.3368 28.9857 19.5633 29.249L21.8619 31.9251C22.4178 32.5713 23.3019 32.9568 24.2274 32.9568H25.3935C25.3995 32.9568 25.4054 32.9584 25.4113 32.9584H25.4125L29.16 32.9573H29.1617C29.6354 32.9573 30.0807 33.1189 30.416 33.411L30.9051 33.8379L31.7413 33.1081L31.2522 32.6812C30.6934 32.194 29.9512 31.9251 29.1623 31.9251C29.1617 31.9251 29.1606 31.9251 29.1594 31.9251H28.3663V31.9246H25.393C24.9258 31.9204 24.487 31.761 24.1552 31.4724C23.8211 31.1798 23.636 30.7901 23.636 30.3762C23.636 30.0913 23.9015 29.8601 24.2274 29.8601H32.0239C32.6094 29.8601 33.1765 30.0097 33.6638 30.2936L34.6928 30.8923H36.6461V35.0213H23.1422ZM41.377 36.0536H40.1943V31.9246H39.0115V36.0536H37.8288V29.8601H39.0115V30.8923H40.1943V29.8601H41.377V36.0536Z" fill="white"/>
<path d="M13.5828 15.4083C13.9087 15.4083 14.1742 15.64 14.1742 15.9244H15.3569C15.3569 15.0707 14.5609 14.376 13.5828 14.376V13.3438H12.4001V14.376H10.626V15.9244C10.626 16.7781 11.422 17.4728 12.4001 17.4728H13.5828C13.9087 17.4728 14.1742 17.7045 14.1742 17.9889V18.505H12.4001C12.0742 18.505 11.8087 18.2733 11.8087 17.9889H10.626C10.626 18.8426 11.422 19.5373 12.4001 19.5373V20.5696H13.5828V19.5373H15.3569V17.9889C15.3569 17.1352 14.5609 16.4405 13.5828 16.4405H12.4001C12.0742 16.4405 11.8087 16.2088 11.8087 15.9244V15.4083H13.5828Z" fill="white"/>
<path d="M20.0878 17.656C20.0878 16.4168 19.6573 15.225 18.843 14.2093L16.0121 10.6795L17.8938 5.752L14.4485 5L13.5095 6.63923L12.6804 5.55329L8.04582 6.22787L9.96303 10.6898L7.13985 14.2093C6.32553 15.2255 5.89502 16.4173 5.89502 17.656C5.89502 20.9701 8.98432 23.6663 12.7815 23.6663H13.2019C16.9985 23.6663 20.0878 20.9701 20.0878 17.656ZM12.1197 6.68206L13.6561 8.6929L15.0825 6.2031L16.3681 6.48335L14.9305 10.247H11.0358L9.65788 7.04026L12.1197 6.68206ZM13.2014 22.6341H12.7809C9.6366 22.6341 7.07775 20.4008 7.07775 17.656C7.07775 16.6294 7.43435 15.6426 8.1091 14.8013L10.9341 11.2792H15.0494L17.8743 14.8013C18.5485 15.6426 18.9051 16.6299 18.9051 17.656C18.9051 20.4008 16.3462 22.6341 13.2014 22.6341Z" fill="white"/>
<path d="M10.626 24.6986L14.1742 28.8276H12.4001V30.0953C12.4001 32.503 13.8785 34.7265 16.2735 35.9208L16.5396 36.0534V36.5696C12.2936 36.5696 8.85186 33.5657 8.85186 29.8599V28.8276H7.07776L10.626 24.6986Z" fill="#19E2D6"/>
<path d="M27.7756 17.4729L24.2274 13.3439H26.0015V12.0763C26.0015 9.66851 24.5231 7.44503 22.1281 6.2507L21.8619 6.11806V5.60193C26.1079 5.60193 29.5497 8.6058 29.5497 12.3116V13.3439H31.3238L27.7756 17.4729Z" fill="#19E2D6"/>
</svg>
