<svg width="48" height="42" viewBox="0 0 48 42" fill="none" xmlns="http://www.w3.org/2000/svg">
<rect width="48" height="42" rx="5" fill="#2930FF"/>
<path d="M16.0678 22.0658C15.6563 22.0658 15.2694 21.9102 15.0059 21.6392L12.4936 19.0542H7.49945C6.53129 19.0542 5.74341 18.3786 5.74341 17.5484V6.50581C5.74341 5.6756 6.53129 5 7.49945 5H22.7185C23.6866 5 24.4745 5.6756 24.4745 6.50581V17.5484C24.4745 18.3786 23.6866 19.0542 22.7185 19.0542H17.4504V20.8802C17.4504 21.5337 16.8299 22.0658 16.0678 22.0658V22.0658Z" fill="#19E2D6"/>
<path d="M15.109 17.2161L10.5895 13.7713C9.74192 13.1253 9.25549 12.1967 9.25549 11.2235V11.1447C9.25549 10.2849 9.64592 9.47674 10.3554 8.8684C10.9992 8.31577 11.8562 8.0116 12.7676 8.0116C13.6456 8.0116 14.4733 8.29419 15.109 8.80917C15.7447 8.29419 16.5723 8.0116 17.4504 8.0116C18.3617 8.0116 19.2187 8.31577 19.8626 8.8684C20.572 9.47674 20.9624 10.2849 20.9624 11.1447V11.2235C20.9624 12.1962 20.476 13.1248 19.6278 13.7708L15.109 17.2161ZM12.7676 9.01546C12.1694 9.01546 11.6062 9.21523 11.183 9.57813C10.6949 9.99675 10.4262 10.5529 10.4262 11.1447V11.2235C10.4262 11.9096 10.7692 12.5651 11.3674 13.0209L15.109 15.8729L18.8505 13.0209C19.4487 12.5651 19.7917 11.9101 19.7917 11.2235V11.1447C19.7917 10.5529 19.5231 9.99675 19.0349 9.57813C18.1885 8.85284 16.7122 8.85284 15.8658 9.57813L15.109 10.2271L14.3521 9.57813C13.9289 9.21523 13.3658 9.01546 12.7676 9.01546V9.01546Z" fill="white"/>
<path d="M17.4504 27.0851C16.1591 27.0851 15.109 26.1846 15.109 25.0774C15.109 23.9702 16.1591 23.0697 17.4504 23.0697C18.7417 23.0697 19.7918 23.9702 19.7918 25.0774C19.7918 26.1846 18.7417 27.0851 17.4504 27.0851ZM17.4504 24.0735C16.8048 24.0735 16.2797 24.5238 16.2797 25.0774C16.2797 25.631 16.8048 26.0812 17.4504 26.0812C18.096 26.0812 18.6211 25.631 18.6211 25.0774C18.6211 24.5238 18.096 24.0735 17.4504 24.0735Z" fill="white"/>
<path d="M20.3806 31.1559L20.1184 29.133C19.9674 27.9655 18.8201 27.0851 17.4504 27.0851C16.0807 27.0851 14.9334 27.9655 14.7818 29.133L14.5195 31.1559L13.3564 31.045L13.6187 29.0221C13.8358 27.3456 15.483 26.0812 17.4504 26.0812C19.4177 26.0812 21.0649 27.3456 21.2821 29.0221L21.5443 31.045L20.3806 31.1559Z" fill="white"/>
<path d="M12.7675 28.0889C11.4763 28.0889 10.4261 27.1884 10.4261 26.0812C10.4261 24.9739 11.4763 24.0735 12.7675 24.0735C14.0588 24.0735 15.1089 24.9739 15.1089 26.0812C15.1089 27.1884 14.0588 28.0889 12.7675 28.0889ZM12.7675 25.0773C12.1219 25.0773 11.5968 25.5276 11.5968 26.0812C11.5968 26.6348 12.1219 27.085 12.7675 27.085C13.4132 27.085 13.9382 26.6348 13.9382 26.0812C13.9382 25.5276 13.4132 25.0773 12.7675 25.0773Z" fill="white"/>
<path d="M10.4262 31.1006H9.25549V30.0967C9.25549 28.4358 10.8307 27.0851 12.7676 27.0851C13.5461 27.0851 14.283 27.2989 14.8994 27.703L14.1882 28.5C13.7779 28.231 13.2868 28.089 12.7676 28.089C11.4763 28.089 10.4262 28.9894 10.4262 30.0967V31.1006Z" fill="white"/>
<path d="M22.1331 24.0734C20.8419 24.0734 19.7917 24.9738 19.7917 26.0811C19.7917 26.6162 20.0411 27.1005 20.4403 27.4609C20.2893 27.5327 20.1412 27.6115 20.0013 27.7034L20.7125 28.5004C21.1228 28.2309 21.6139 28.0888 22.1331 28.0888C23.4244 28.0888 24.4745 28.9893 24.4745 30.0966V31.1005H25.6452V30.0966C25.6452 28.9622 24.9094 27.9734 23.8265 27.4599C24.2258 27.0995 24.4745 26.6162 24.4745 26.0811C24.4745 24.9738 23.4244 24.0734 22.1331 24.0734ZM20.9624 26.0811C20.9624 25.5275 21.4875 25.0772 22.1331 25.0772C22.7788 25.0772 23.3038 25.5275 23.3038 26.0811C23.3038 26.6347 22.7788 27.085 22.1331 27.085C21.4875 27.085 20.9624 26.6347 20.9624 26.0811Z" fill="white"/>
<path d="M34.7457 11.718C34.3096 11.2763 33.6727 11.0233 32.9984 11.0233C32.1912 11.0233 31.4905 11.4926 31.2945 12.1637C31.0826 12.8915 30.6435 13.5561 30.0248 14.0871L29.8522 14.2352C29.6572 14.1112 29.4184 14.0349 29.1573 14.0349H26.816C26.1703 14.0349 25.6453 14.4852 25.6453 15.0388V20.0581C25.6453 20.6118 26.1703 21.062 26.816 21.062H29.1573C29.6684 21.062 30.0986 20.7784 30.2584 20.3864C31.2968 20.8281 32.4376 21.062 33.6089 21.062H36.1815C37.4728 21.062 38.5229 20.1615 38.5229 19.0543V16.0427C38.5229 14.9354 37.4728 14.0349 36.1815 14.0349H35.1162L35.2573 13.3101C35.3679 12.7394 35.1817 12.1592 34.7457 11.718ZM26.816 20.0581V15.0388H29.1573L29.1579 20.0581H26.816ZM36.1815 15.0388C36.8272 15.0388 37.3522 15.489 37.3522 16.0427V19.0543C37.3522 19.6079 36.8272 20.0581 36.1815 20.0581H33.6089C32.447 20.0581 31.3202 19.7866 30.328 19.2761V15.2466L30.8525 14.7969C31.6211 14.1378 32.1672 13.3111 32.4306 12.4071C32.4956 12.1838 32.7291 12.0272 32.9984 12.0272C33.328 12.0272 33.6394 12.1507 33.8524 12.367C34.0655 12.5828 34.1568 12.8664 34.1024 13.1455L33.7348 15.0388H36.1815Z" fill="white"/>
<path d="M40.2789 9.0155H24.4745V10.0194H40.2789C40.6014 10.0194 40.8642 10.2442 40.8642 10.5213V21.5638C40.8642 21.8409 40.6014 22.0658 40.2789 22.0658H33.5661L30.7026 25.0116C30.5867 25.1301 30.328 25.0502 30.328 24.8957V22.0658H22.7184C22.3959 22.0658 22.1331 21.8409 22.1331 21.5638V19.0542H20.9624V20.058H17.4503V20.8802C17.4503 20.9424 17.4398 21.0022 17.4287 21.0619H20.9624V21.5638C20.9624 22.394 21.7503 23.0696 22.7184 23.0696H26.8159V31.6025C26.8159 31.8795 26.5531 32.1044 26.2305 32.1044H18.621V34.9343C18.621 35.0894 18.3623 35.1697 18.2464 35.0503L15.3829 32.1044H8.6701C8.34758 32.1044 8.08476 31.8795 8.08476 31.6025V21.5638C8.08476 21.2868 8.34758 21.0619 8.6701 21.0619H14.4446L13.4688 20.058H8.6701C7.70194 20.058 6.91406 20.7336 6.91406 21.5638V31.6025C6.91406 32.4327 7.70194 33.1083 8.6701 33.1083H14.835L17.3473 35.6932C17.6107 35.9643 17.9976 36.1199 18.4091 36.1199C19.1712 36.1199 19.7917 35.5878 19.7917 34.9343V33.1083H26.2305C27.1987 33.1083 27.9866 32.4327 27.9866 31.6025V23.0696H29.1573V24.8957C29.1573 25.5492 29.7777 26.0812 30.5399 26.0812C30.9514 26.0812 31.3383 25.9256 31.6017 25.6546L34.114 23.0696H40.2789C41.247 23.0696 42.0349 22.394 42.0349 21.5638V10.5213C42.0349 9.6911 41.247 9.0155 40.2789 9.0155Z" fill="white"/>
</svg>
